<svg version="1.2" xmlns="http://www.w3.org/2000/svg" viewBox="0 0 67 75" width="67" height="75"><style>.a{fill:#35ba00}.b{paint-order:stroke fill markers;stroke:#000;stroke-width: 4;stroke-linejoin: round;;fill:#49ff00}</style><path class="a" d="m11.3 19.6l20.6-7.8 11.7 30.8-20.5 7.8z"/><path class="a" d="m32.6 13.6l1.8-0.7 6.1 15.9-1.9 0.7z"/><path class="a" d="m21.1 11.6l4.7-1.8 1.8 4.7-4.7 1.7z"/><path class="a" d="m7.3 14.7l11.2-4.3 2.2 5.6-11.3 4.3z"/><path class="a" d="m3.4 4.4l4.7-1.8 13.5 35.5-4.7 1.8z"/><path class="a" d="m16.2 38.1l3.7-1.5 2.5 6.6-3.7 1.4z"/><path class="a" d="m1.5 27.6l4.7-1.8 2.1 5.6-4.6 1.8z"/><path class="a" d="m4.7 27.5l5.6-2.2 2.8 7.5-5.6 2.1z"/><path class="a" d="m8.7 32.4l5.6-2.2 1.8 4.7-5.6 2.1z"/><path class="a" d="m11.6 34.5l2.8-1.1 2.5 6.5-2.8 1.1z"/><path  d="m18.7 44.6l1.9-0.7 2.5 6.5-1.9 0.7z"/><path  d="m15.1 40.6l1.8-0.7 1.8 4.7-1.9 0.7z"/><path  d="m10.5 37l1.8-0.7 1.8 4.7-1.8 0.7z"/><path  d="m12.8 40.4l1.9-0.7 0.4 0.9-1.9 0.7z"/><path  d="m7.2 34l1.8-0.7 1.5 3.7-1.9 0.7z"/><path  d="m3.7 33.2l2.8-1.1 0.7 1.9-2.8 1.1z"/><path  d="m-0.7 27.4l1.9-0.7 2.1 5.6-1.9 0.7z"/><path  d="m2 31.7l0.9-0.4 0.8 1.9-1 0.4z"/><path  d="m0.2 27l5.6-2.1 0.8 1.9-5.7 2.1z"/><path  d="m6.6 26.8l3.7-1.5 0.7 1.9-3.7 1.4z"/><path  d="m1.5 5.1l1.9-0.7 11 29-1.8 0.7z"/><path  d="m2.7 2.5l4.6-1.7 0.8 1.8-4.7 1.8z"/><path  d="m34.4 12.9l1.9-0.7 6.1 15.9-1.9 0.7z"/><path  d="m38.6 29.5l1.9-0.7 2.5 6.5-1.9 0.7z"/><path  d="m39.3 36.8l1.8-0.8 2.5 6.6-1.8 0.7z"/><path  d="m7.7 1.7l1.9-0.7 8.2 21.5-1.9 0.7z"/><path  d="m13.5 11.3l4.7-1.8 0.7 1.9-4.7 1.7z"/><path  d="m26.1 10.7l1.9-0.7 0.7 1.9-1.9 0.7z"/><path  d="m18.9 11.4l1.8-0.8 3.6 9.4-1.9 0.7z"/><path  d="m19.8 11l5.6-2.1 0.7 1.8-5.6 2.2z"/><path  d="m26.5 11.7l1.9-0.7 3.2 8.4-1.9 0.7z"/><path  d="m27.4 11.3l3.8-1.4 0.7 1.9-3.8 1.4z"/><path  d="m31.9 11.8l1.8-0.8 0.7 1.9-1.8 0.7z"/><path class="b" d="m10.1 63.2q-2 0-4.1-0.5-2.1-0.6-3.9-1.7l2.5-3.5q1.1 0.8 2.7 1.3 1.6 0.4 2.7 0.4 1.1 0 1.7-0.3 0.6-0.3 0.6-0.8 0-0.4-0.3-0.6-0.3-0.2-0.8-0.2-0.3 0-0.7 0-0.4 0.1-0.7 0.1-1.2 0.1-2.5 0.1-2.2 0-3.5-0.8-1.3-0.8-1.3-2.6 0-2.1 2-3.3 1.9-1.1 5.8-1.1 1.9 0 3.8 0.5 2 0.5 3.5 1.6l-2.8 2.8q-1.4-0.7-2.6-1-1.1-0.3-2.3-0.3-0.9 0-1.5 0.3-0.6 0.4-0.6 0.8 0 0.3 0.3 0.5 0.2 0.2 0.6 0.2 0.4 0 1.2-0.1 1.7-0.1 2.6-0.1 2.5 0 3.8 0.9 1.4 0.8 1.4 2.5 0 2.6-2 3.8-2 1.1-5.6 1.1zm24.7-7v2.8q0 0.8 0.2 1.2 0.1 0.3 0.7 0.4l-0.1 2.3q-0.7 0.1-1.3 0.2-0.6 0-1.5 0-2.1 0-2.7-0.9-0.7-0.9-0.7-2.4v-0.6q-0.7 2-2.1 3-1.3 0.9-3.3 0.9-2.4 0-3.7-0.9-1.2-1-1.2-2.9 0-1.6 1.1-2.4 1-0.9 3.2-1.3-1.9-1.3-3.7-2.2 1.5-1.8 3.3-2.8 1.9-0.9 4.5-0.9 3.7 0 5.5 1.6 1.8 1.5 1.8 4.9zm-6.8-2.3q-1.2 0-2.2 0.4-0.9 0.4-1.6 1.2 1.4-0.2 3.6-0.2 0.8 0 1.2-0.2 0.4-0.2 0.4-0.5 0-0.3-0.4-0.5-0.4-0.2-1-0.2zm-2.5 5.3q1.3 0 2.4-0.5 1.1-0.5 1.5-1.4v-0.6q-0.6 0.3-1.3 0.5-0.7 0.1-1.7 0.3l-0.8 0.1q-1.4 0.3-1.4 0.9 0 0.7 1.3 0.7zm17-10.4q-0.1 0.1-0.1 0.3 0 0.4 0.3 0.6 0.4 0.2 0.9 0.2h3.2v4.3q-2-0.2-3.2-0.2 0.1 4.5 0.2 9h-5.7q0.1-2.8 0.1-8.9-0.5 0-1.8 0.1v-4.3h1.7v-0.4q0-1.9 0.8-3.2 0.8-1.3 2.1-2 1.4-0.7 3.1-0.7 1.5 0 2.9 0.4-0.5 1.8-1 4.4l-0.1 0.8q-0.5-0.5-1.2-0.7-0.6-0.3-1.1-0.3-0.5 0-0.7 0.2-0.3 0.1-0.4 0.4zm21.1 8.2h-2.9-7.9q0.2 1.1 1 1.7 0.7 0.7 2.1 0.7 1 0 1.9-0.4 0.9-0.4 1.4-1.1 1.7 0.8 4.3 1.7-0.7 1.6-2.7 2.7-1.9 0.9-5.1 0.9-4.1 0-6-1.8-2-1.9-2-5 0-3 2-4.9 1.9-1.8 6-1.8 2.5 0 4.3 0.8 1.8 0.8 2.7 2.3 1 1.4 1 3.3 0 0.6-0.1 0.9zm-7.5-3.7q-1.2 0-2 0.4-0.8 0.5-1.1 1.3h5.7q-0.3-0.8-1-1.2-0.6-0.5-1.6-0.5z"/></svg>