<svg version="1.2" xmlns="http://www.w3.org/2000/svg" viewBox="0 0 67 75" width="67" height="75"><style></style><path  d="m18.7 44.6l1.9-0.7 2.5 6.5-1.9 0.7z"/><path  d="m15.1 40.6l1.8-0.7 1.8 4.7-1.9 0.7z"/><path  d="m10.5 37l1.8-0.7 1.8 4.7-1.8 0.7z"/><path  d="m12.8 40.4l1.9-0.7 0.4 0.9-1.9 0.7z"/><path  d="m7.2 34l1.8-0.7 1.5 3.7-1.9 0.7z"/><path  d="m3.7 33.2l2.8-1.1 0.7 1.9-2.8 1.1z"/><path  d="m-0.7 27.4l1.9-0.7 2.1 5.6-1.9 0.7z"/><path  d="m2 31.7l0.9-0.4 0.8 1.9-1 0.4z"/><path  d="m0.2 27l5.6-2.1 0.8 1.9-5.7 2.1z"/><path  d="m6.6 26.8l3.7-1.5 0.7 1.9-3.7 1.4z"/><path  d="m1.5 5.1l1.9-0.7 11 29-1.8 0.7z"/><path  d="m2.7 2.5l4.6-1.7 0.8 1.8-4.7 1.8z"/><path  d="m34.4 12.9l1.9-0.7 6.1 15.9-1.9 0.7z"/><path  d="m38.6 29.5l1.9-0.7 2.5 6.5-1.9 0.7z"/><path  d="m39.3 36.8l1.8-0.8 2.5 6.6-1.8 0.7z"/><path  d="m7.7 1.7l1.9-0.7 8.2 21.5-1.9 0.7z"/><path  d="m13.5 11.3l4.7-1.8 0.7 1.9-4.7 1.7z"/><path  d="m26.1 10.7l1.9-0.7 0.7 1.9-1.9 0.7z"/><path  d="m18.9 11.4l1.8-0.8 3.6 9.4-1.9 0.7z"/><path  d="m19.8 11l5.6-2.1 0.7 1.8-5.6 2.2z"/><path  d="m26.5 11.7l1.9-0.7 3.2 8.4-1.9 0.7z"/><path  d="m27.4 11.3l3.8-1.4 0.7 1.9-3.8 1.4z"/><path  d="m31.9 11.8l1.8-0.8 0.7 1.9-1.8 0.7z"/></svg>